<svg width="1795" height="973" xmlns="http://www.w3.org/2000/svg" xmlns:xlink="http://www.w3.org/1999/xlink" overflow="hidden"><defs><clipPath id="clip0"><rect x="3027" y="1362" width="1795" height="973"/></clipPath><clipPath id="clip1"><rect x="3028" y="1363" width="1792" height="970"/></clipPath><clipPath id="clip2"><rect x="3028" y="1363" width="1792" height="970"/></clipPath><clipPath id="clip3"><rect x="3137" y="1533" width="1636" height="592"/></clipPath><clipPath id="clip4"><rect x="3137" y="1533" width="1636" height="592"/></clipPath><clipPath id="clip5"><rect x="3137" y="1533" width="1636" height="592"/></clipPath><clipPath id="clip6"><rect x="3137" y="1533" width="1636" height="592"/></clipPath><clipPath id="clip7"><rect x="3028" y="1363" width="1792" height="970"/></clipPath><clipPath id="clip8"><rect x="3028" y="1363" width="1792" height="970"/></clipPath><clipPath id="clip9"><rect x="3028" y="1363" width="1792" height="970"/></clipPath><clipPath id="clip10"><rect x="3028" y="1363" width="1792" height="970"/></clipPath><clipPath id="clip11"><rect x="3028" y="1363" width="1792" height="970"/></clipPath><clipPath id="clip12"><rect x="3028" y="1363" width="1792" height="970"/></clipPath><clipPath id="clip13"><rect x="3028" y="1363" width="1792" height="970"/></clipPath><clipPath id="clip14"><rect x="3028" y="1363" width="1792" height="970"/></clipPath><clipPath id="clip15"><rect x="3028" y="1363" width="1792" height="970"/></clipPath><clipPath id="clip16"><rect x="3028" y="1363" width="1792" height="970"/></clipPath><clipPath id="clip17"><rect x="3028" y="1363" width="1792" height="970"/></clipPath><clipPath id="clip18"><rect x="3028" y="1363" width="1792" height="970"/></clipPath><clipPath id="clip19"><rect x="3028" y="1363" width="1792" height="970"/></clipPath><clipPath id="clip20"><rect x="3028" y="1363" width="1792" height="970"/></clipPath><clipPath id="clip21"><rect x="3028" y="1363" width="1792" height="970"/></clipPath><clipPath id="clip22"><rect x="3028" y="1363" width="1792" height="970"/></clipPath><clipPath id="clip23"><rect x="3028" y="1363" width="1792" height="970"/></clipPath><clipPath id="clip24"><rect x="3028" y="1363" width="1792" height="970"/></clipPath><clipPath id="clip25"><rect x="3028" y="1363" width="1792" height="970"/></clipPath><clipPath id="clip26"><rect x="3028" y="1363" width="1792" height="970"/></clipPath><clipPath id="clip27"><rect x="3028" y="1363" width="1792" height="970"/></clipPath><clipPath id="clip28"><rect x="3028" y="1363" width="1792" height="970"/></clipPath><clipPath id="clip29"><rect x="3028" y="1363" width="1792" height="970"/></clipPath><clipPath id="clip30"><rect x="3028" y="1363" width="1792" height="970"/></clipPath><clipPath id="clip31"><rect x="3028" y="1363" width="1792" height="970"/></clipPath></defs><g clip-path="url(#clip0)" transform="translate(-3027 -1362)"><rect x="3028" y="1363" width="1792" height="970" fill="#FFFFFF"/><g clip-path="url(#clip1)"><path d="M3137.5 2037.57 4769.5 2037.57M3137.5 1953.56 4769.5 1953.56M3137.5 1869.56 4769.5 1869.56M3137.5 1785.56 4769.5 1785.56M3137.5 1701.56 4769.5 1701.56M3137.5 1617.55 4769.5 1617.55M3137.5 1533.5 4769.5 1533.5" stroke="#D9D9D9" stroke-width="3.4375" stroke-linejoin="round" stroke-miterlimit="10" fill="none"/></g><g clip-path="url(#clip2)"><path d="M3137.5 2121.5 4769.5 2121.5" stroke="#D9D9D9" stroke-width="3.4375" stroke-linejoin="round" stroke-miterlimit="10" fill="none" fill-rule="evenodd"/></g><g clip-path="url(#clip3)"><path d="M3240 2025.07 3444.11 1913.06 3648.12 2027 3852.13 1940.06 4056.13 1723.06 4260.14 1565 4464.15 1950.06 4668 1939.06" stroke="#4472C4" stroke-width="10.3125" stroke-linecap="round" stroke-linejoin="round" stroke-miterlimit="10" fill="none"/></g><g clip-path="url(#clip4)"><path d="M3240 2099.07 3444.11 2094.07 3648.12 2020.07 3852.13 2012 4056.13 2031.07 4260.14 2034.07 4464.15 2111 4668 2111.07" stroke="#ED7D31" stroke-width="10.3125" stroke-linecap="round" stroke-linejoin="round" stroke-miterlimit="10" fill="none"/></g><g clip-path="url(#clip5)"><path d="M3240 2084.07 3444.11 2062.07 3648.12 2082.07 3852.13 2035.07 4056.13 1983.07 4260.14 1875 4464.15 2092.07 4668 2103" stroke="#A5A5A5" stroke-width="10.3125" stroke-linecap="round" stroke-linejoin="round" stroke-miterlimit="10" fill="none"/></g><g clip-path="url(#clip6)"><path d="M3240 2049.07 3444.11 2049.07 3648.12 2022.07 3852.13 2007.07 4056.13 2010.07 4260.14 1991 4464.15 2082.07 4668 2083" stroke="#FFC000" stroke-width="10.3125" stroke-linecap="round" stroke-linejoin="round" stroke-miterlimit="10" fill="none"/></g><g clip-path="url(#clip7)"><text fill="#595959" font-family="Calibri,Calibri_MSFontService,sans-serif" font-weight="400" font-size="41" transform="matrix(1 0 0 1 3078.73 2133)">0</text></g><g clip-path="url(#clip8)"><text fill="#595959" font-family="Calibri,Calibri_MSFontService,sans-serif" font-weight="400" font-size="41" transform="matrix(1 0 0 1 3078.73 2049)">5</text></g><g clip-path="url(#clip9)"><text fill="#595959" font-family="Calibri,Calibri_MSFontService,sans-serif" font-weight="400" font-size="41" transform="matrix(1 0 0 1 3057.83 1965)">10</text></g><g clip-path="url(#clip10)"><text fill="#595959" font-family="Calibri,Calibri_MSFontService,sans-serif" font-weight="400" font-size="41" transform="matrix(1 0 0 1 3057.83 1881)">15</text></g><g clip-path="url(#clip11)"><text fill="#595959" font-family="Calibri,Calibri_MSFontService,sans-serif" font-weight="400" font-size="41" transform="matrix(1 0 0 1 3057.83 1797)">20</text></g><g clip-path="url(#clip12)"><text fill="#595959" font-family="Calibri,Calibri_MSFontService,sans-serif" font-weight="400" font-size="41" transform="matrix(1 0 0 1 3057.83 1713)">25</text></g><g clip-path="url(#clip13)"><text fill="#595959" font-family="Calibri,Calibri_MSFontService,sans-serif" font-weight="400" font-size="41" transform="matrix(1 0 0 1 3057.83 1629)">30</text></g><g clip-path="url(#clip14)"><text fill="#595959" font-family="Calibri,Calibri_MSFontService,sans-serif" font-weight="400" font-size="41" transform="matrix(1 0 0 1 3057.83 1545)">35</text></g><g clip-path="url(#clip15)"><text fill="#595959" font-family="Calibri,Calibri_MSFontService,sans-serif" font-weight="400" font-size="41" transform="matrix(1 0 0 1 3229.44 2187)">1</text></g><g clip-path="url(#clip16)"><text fill="#595959" font-family="Calibri,Calibri_MSFontService,sans-serif" font-weight="400" font-size="41" transform="matrix(1 0 0 1 3433.41 2187)">2</text></g><g clip-path="url(#clip17)"><text fill="#595959" font-family="Calibri,Calibri_MSFontService,sans-serif" font-weight="400" font-size="41" transform="matrix(1 0 0 1 3637.39 2187)">3</text></g><g clip-path="url(#clip18)"><text fill="#595959" font-family="Calibri,Calibri_MSFontService,sans-serif" font-weight="400" font-size="41" transform="matrix(1 0 0 1 3841.36 2187)">4</text></g><g clip-path="url(#clip19)"><text fill="#595959" font-family="Calibri,Calibri_MSFontService,sans-serif" font-weight="400" font-size="41" transform="matrix(1 0 0 1 4045.34 2187)">5</text></g><g clip-path="url(#clip20)"><text fill="#595959" font-family="Calibri,Calibri_MSFontService,sans-serif" font-weight="400" font-size="41" transform="matrix(1 0 0 1 4249.32 2187)">6</text></g><g clip-path="url(#clip21)"><text fill="#595959" font-family="Calibri,Calibri_MSFontService,sans-serif" font-weight="400" font-size="41" transform="matrix(1 0 0 1 4453.29 2187)">7</text></g><g clip-path="url(#clip22)"><text fill="#595959" font-family="Calibri,Calibri_MSFontService,sans-serif" font-weight="400" font-size="41" transform="matrix(1 0 0 1 4657.27 2187)">8</text></g><g clip-path="url(#clip23)"><text fill="#595959" font-family="Calibri,Calibri_MSFontService,sans-serif" font-weight="400" font-size="64" transform="matrix(1 0 0 1 3788.49 1458)">Comparative simulation progress</text></g><g clip-path="url(#clip24)"><path d="M3176 2267 3264 2267" stroke="#4472C4" stroke-width="10.3125" stroke-linecap="round" stroke-linejoin="round" stroke-miterlimit="10" fill="none" fill-rule="evenodd"/></g><g clip-path="url(#clip25)"><text fill="#595959" font-family="Calibri,Calibri_MSFontService,sans-serif" font-weight="400" font-size="41" transform="matrix(1 0 0 1 3273.69 2278)">AV. Avai. Rh M</text></g><g clip-path="url(#clip26)"><path d="M3578 2267 3666 2267" stroke="#ED7D31" stroke-width="10.3125" stroke-linecap="round" stroke-linejoin="round" stroke-miterlimit="10" fill="none" fill-rule="evenodd"/></g><g clip-path="url(#clip27)"><text fill="#595959" font-family="Calibri,Calibri_MSFontService,sans-serif" font-weight="400" font-size="41" transform="matrix(1 0 0 1 3675.15 2278)">AV. Avai. Rh T</text></g><g clip-path="url(#clip28)"><path d="M3964 2267 4052 2267" stroke="#A5A5A5" stroke-width="10.3125" stroke-linecap="round" stroke-linejoin="round" stroke-miterlimit="10" fill="none" fill-rule="evenodd"/></g><g clip-path="url(#clip29)"><text fill="#595959" font-family="Calibri,Calibri_MSFontService,sans-serif" font-weight="400" font-size="41" transform="matrix(1 0 0 1 4061.45 2278)">AV. inProd Ph</text></g><g clip-path="url(#clip30)"><path d="M4348 2267 4436 2267" stroke="#FFC000" stroke-width="10.3125" stroke-linecap="round" stroke-linejoin="round" stroke-miterlimit="10" fill="none" fill-rule="evenodd"/></g><g clip-path="url(#clip31)"><text fill="#595959" font-family="Calibri,Calibri_MSFontService,sans-serif" font-weight="400" font-size="41" transform="matrix(1 0 0 1 4445.38 2278)">AV. inTrans Ph</text></g><rect x="3028.5" y="1363.5" width="1792" height="970" stroke="#D9D9D9" stroke-width="3.4375" stroke-linejoin="round" stroke-miterlimit="10" fill="none"/></g></svg>