<svg width="1670" height="974" xmlns="http://www.w3.org/2000/svg" xmlns:xlink="http://www.w3.org/1999/xlink"
    overflow="hidden">
    <defs>
        <clipPath id="clip0">
            <rect x="5044" y="1349" width="1670" height="974" />
        </clipPath>
        <clipPath id="clip1">
            <rect x="5044" y="1349" width="1668" height="971" />
        </clipPath>
        <clipPath id="clip2">
            <rect x="5044" y="1349" width="1668" height="971" />
        </clipPath>
        <clipPath id="clip3">
            <rect x="5236" y="1519" width="1429" height="523" />
        </clipPath>
        <clipPath id="clip4">
            <rect x="5236" y="1519" width="1429" height="523" />
        </clipPath>
        <clipPath id="clip5">
            <rect x="5236" y="1519" width="1429" height="523" />
        </clipPath>
        <clipPath id="clip6">
            <rect x="5236" y="1519" width="1429" height="523" />
        </clipPath>
        <clipPath id="clip7">
            <rect x="5044" y="1349" width="1668" height="971" />
        </clipPath>
        <clipPath id="clip8">
            <rect x="5044" y="1349" width="1668" height="971" />
        </clipPath>
        <clipPath id="clip9">
            <rect x="5044" y="1349" width="1668" height="971" />
        </clipPath>
        <clipPath id="clip10">
            <rect x="5044" y="1349" width="1668" height="971" />
        </clipPath>
        <clipPath id="clip11">
            <rect x="5044" y="1349" width="1668" height="971" />
        </clipPath>
        <clipPath id="clip12">
            <rect x="5044" y="1349" width="1668" height="971" />
        </clipPath>
        <clipPath id="clip13">
            <rect x="5044" y="1349" width="1668" height="971" />
        </clipPath>
        <clipPath id="clip14">
            <rect x="5044" y="1349" width="1668" height="971" />
        </clipPath>
        <clipPath id="clip15">
            <rect x="5044" y="1349" width="1668" height="971" />
        </clipPath>
        <clipPath id="clip16">
            <rect x="5044" y="1349" width="1668" height="971" />
        </clipPath>
        <clipPath id="clip17">
            <rect x="5044" y="1349" width="1668" height="971" />
        </clipPath>
        <clipPath id="clip18">
            <rect x="5044" y="1349" width="1668" height="971" />
        </clipPath>
        <clipPath id="clip19">
            <rect x="5044" y="1349" width="1668" height="971" />
        </clipPath>
        <clipPath id="clip20">
            <rect x="5044" y="1349" width="1668" height="971" />
        </clipPath>
        <clipPath id="clip21">
            <rect x="5044" y="1349" width="1668" height="971" />
        </clipPath>
        <clipPath id="clip22">
            <rect x="5044" y="1349" width="1668" height="971" />
        </clipPath>
        <clipPath id="clip23">
            <rect x="5044" y="1349" width="1668" height="971" />
        </clipPath>
        <clipPath id="clip24">
            <rect x="5044" y="1349" width="1668" height="971" />
        </clipPath>
        <clipPath id="clip25">
            <rect x="5044" y="1349" width="1668" height="971" />
        </clipPath>
        <clipPath id="clip26">
            <rect x="5044" y="1349" width="1668" height="971" />
        </clipPath>
        <clipPath id="clip27">
            <rect x="5044" y="1349" width="1668" height="971" />
        </clipPath>
        <clipPath id="clip28">
            <rect x="5044" y="1349" width="1668" height="971" />
        </clipPath>
        <clipPath id="clip29">
            <rect x="5044" y="1349" width="1668" height="971" />
        </clipPath>
        <clipPath id="clip30">
            <rect x="5044" y="1349" width="1668" height="971" />
        </clipPath>
        <clipPath id="clip31">
            <rect x="5044" y="1349" width="1668" height="971" />
        </clipPath>
        <clipPath id="clip32">
            <rect x="5044" y="1349" width="1668" height="971" />
        </clipPath>
    </defs>
    <g clip-path="url(#clip0)" transform="translate(-5044 -1349)">
        <rect x="5045" y="1350" width="1667" height="971" fill="#FFFFFF" />
        <g clip-path="url(#clip1)">
            <path
                d="M5236.5 1981.57 6661.5 1981.57M5236.5 1923.56 6661.5 1923.56M5236.5 1866.56 6661.5 1866.56M5236.5 1808.56 6661.5 1808.56M5236.5 1750.56 6661.5 1750.56M5236.5 1692.56 6661.5 1692.56M5236.5 1635.55 6661.5 1635.55M5236.5 1577.55 6661.5 1577.55M5236.5 1519.5 6661.5 1519.5"
                stroke="#D9D9D9" stroke-width="3.4375" stroke-linejoin="round" stroke-miterlimit="10" fill="none" />
        </g>
        <g clip-path="url(#clip2)">
            <path d="M5236.5 2039.5 6661.5 2039.5" stroke="#D9D9D9" stroke-width="3.4375" stroke-linejoin="round"
                stroke-miterlimit="10" fill="none" fill-rule="evenodd" />
        </g>
        <g clip-path="url(#clip3)">
            <path d="M5338 1624.05 5542.18 1592.05 5745.19 1633.05 5949.2 1649 6153.2 1612.05 6356.21 1641.05 6560 1547"
                stroke="#4472C4" stroke-width="10.3125" stroke-linecap="round" stroke-linejoin="round"
                stroke-miterlimit="10" fill="none" />
        </g>
        <g clip-path="url(#clip4)">
            <path d="M5338 1907.06 5542.18 1878.06 5745.19 1747.06 5949.2 1725 6153.2 1781.06 6356.21 1788.06 6560 1920"
                stroke="#ED7D31" stroke-width="10.3125" stroke-linecap="round" stroke-linejoin="round"
                stroke-miterlimit="10" fill="none" />
        </g>
        <g clip-path="url(#clip5)">
            <path d="M5338 1878.06 5542.18 1910.06 5745.19 1869.06 5949.2 1852 6153.2 1890.06 6356.21 1863.06 6560 1955"
                stroke="#A5A5A5" stroke-width="10.3125" stroke-linecap="round" stroke-linejoin="round"
                stroke-miterlimit="10" fill="none" />
        </g>
        <g clip-path="url(#clip6)">
            <path d="M5338 1621.05 5542.18 1623.05 5745.19 1754 5949.2 1711.06 6153.2 1721.06 6356.21 1666.05 6560 1582"
                stroke="#FFC000" stroke-width="10.3125" stroke-linecap="round" stroke-linejoin="round"
                stroke-miterlimit="10" fill="none" />
        </g>
        <g clip-path="url(#clip7)"><text fill="#595959" font-family="Calibri,Calibri_MSFontService,sans-serif"
                font-weight="400" font-size="41" transform="matrix(1 0 0 1 5095.3 2051)">0.00%</text></g>
        <g clip-path="url(#clip8)"><text fill="#595959" font-family="Calibri,Calibri_MSFontService,sans-serif"
                font-weight="400" font-size="41" transform="matrix(1 0 0 1 5074.4 1993)">10.00%</text></g>
        <g clip-path="url(#clip9)"><text fill="#595959" font-family="Calibri,Calibri_MSFontService,sans-serif"
                font-weight="400" font-size="41" transform="matrix(1 0 0 1 5074.4 1935)">20.00%</text></g>
        <g clip-path="url(#clip10)"><text fill="#595959" font-family="Calibri,Calibri_MSFontService,sans-serif"
                font-weight="400" font-size="41" transform="matrix(1 0 0 1 5074.4 1878)">30.00%</text></g>
        <g clip-path="url(#clip11)"><text fill="#595959" font-family="Calibri,Calibri_MSFontService,sans-serif"
                font-weight="400" font-size="41" transform="matrix(1 0 0 1 5074.4 1820)">40.00%</text></g>
        <g clip-path="url(#clip12)"><text fill="#595959" font-family="Calibri,Calibri_MSFontService,sans-serif"
                font-weight="400" font-size="41" transform="matrix(1 0 0 1 5074.4 1762)">50.00%</text></g>
        <g clip-path="url(#clip13)"><text fill="#595959" font-family="Calibri,Calibri_MSFontService,sans-serif"
                font-weight="400" font-size="41" transform="matrix(1 0 0 1 5074.4 1705)">60.00%</text></g>
        <g clip-path="url(#clip14)"><text fill="#595959" font-family="Calibri,Calibri_MSFontService,sans-serif"
                font-weight="400" font-size="41" transform="matrix(1 0 0 1 5074.4 1647)">70.00%</text></g>
        <g clip-path="url(#clip15)"><text fill="#595959" font-family="Calibri,Calibri_MSFontService,sans-serif"
                font-weight="400" font-size="41" transform="matrix(1 0 0 1 5074.4 1589)">80.00%</text></g>
        <g clip-path="url(#clip16)"><text fill="#595959" font-family="Calibri,Calibri_MSFontService,sans-serif"
                font-weight="400" font-size="41" transform="matrix(1 0 0 1 5074.4 1532)">90.00%</text></g>
        <g clip-path="url(#clip17)"><text fill="#595959" font-family="Calibri,Calibri_MSFontService,sans-serif"
                font-weight="400" font-size="41" transform="matrix(1 0 0 1 5327.56 2104)">sim 1</text></g>
        <g clip-path="url(#clip18)"><text fill="#595959" font-family="Calibri,Calibri_MSFontService,sans-serif"
                font-weight="400" font-size="41" transform="matrix(1 0 0 1 5531.25 2104)">sim 2</text></g>
        <g clip-path="url(#clip19)"><text fill="#595959" font-family="Calibri,Calibri_MSFontService,sans-serif"
                font-weight="400" font-size="41" transform="matrix(1 0 0 1 5734.93 2104)">sim 3</text></g>
        <g clip-path="url(#clip20)"><text fill="#595959" font-family="Calibri,Calibri_MSFontService,sans-serif"
                font-weight="400" font-size="41" transform="matrix(1 0 0 1 5938.62 2104)">sim 4</text></g>
        <g clip-path="url(#clip21)"><text fill="#595959" font-family="Calibri,Calibri_MSFontService,sans-serif"
                font-weight="400" font-size="41" transform="matrix(1 0 0 1 6142.3 2104)">sim 5</text></g>
        <g clip-path="url(#clip22)"><text fill="#595959" font-family="Calibri,Calibri_MSFontService,sans-serif"
                font-weight="400" font-size="41" transform="matrix(1 0 0 1 6345.99 2104)">sim 6</text></g>
        <g clip-path="url(#clip23)"><text fill="#595959" font-family="Calibri,Calibri_MSFontService,sans-serif"
                font-weight="400" font-size="41" transform="matrix(1 0 0 1 6549.67 2104)">sim 7</text></g>
        <g clip-path="url(#clip24)"><text fill="#595959" font-family="Calibri,Calibri_MSFontService,sans-serif"
                font-weight="400" font-size="64" transform="matrix(1 0 0 1 5259.73 1445)">Avarage indicators per
                simulation in percentage</text></g>
        <g clip-path="url(#clip25)">
            <path d="M5440 2184 5528 2184" stroke="#4472C4" stroke-width="10.3125" stroke-linecap="round"
                stroke-linejoin="round" stroke-miterlimit="10" fill="none" fill-rule="evenodd" />
        </g>
        <g clip-path="url(#clip26)"><text fill="#595959" font-family="Calibri,Calibri_MSFontService,sans-serif"
                font-weight="400" font-size="41" transform="matrix(1 0 0 1 5537.27 2196)">RH T Available</text></g>
        <g clip-path="url(#clip27)">
            <path d="M5893 2184 5981 2184" stroke="#ED7D31" stroke-width="10.3125" stroke-linecap="round"
                stroke-linejoin="round" stroke-miterlimit="10" fill="none" fill-rule="evenodd" />
        </g>
        <g clip-path="url(#clip28)"><text fill="#595959" font-family="Calibri,Calibri_MSFontService,sans-serif"
                font-weight="400" font-size="41" transform="matrix(1 0 0 1 5990.22 2196)">RH T Available</text></g>
        <g clip-path="url(#clip29)">
            <path d="M5440 2262 5528 2262" stroke="#A5A5A5" stroke-width="10.3125" stroke-linecap="round"
                stroke-linejoin="round" stroke-miterlimit="10" fill="none" fill-rule="evenodd" />
        </g>
        <g clip-path="url(#clip30)"><text fill="#595959" font-family="Calibri,Calibri_MSFontService,sans-serif"
                font-weight="400" font-size="41" transform="matrix(1 0 0 1 5537.27 2273)">Ph in Production</text></g>
        <g clip-path="url(#clip31)">
            <path d="M5893 2262 5981 2262" stroke="#FFC000" stroke-width="10.3125" stroke-linecap="round"
                stroke-linejoin="round" stroke-miterlimit="10" fill="none" fill-rule="evenodd" />
        </g>
        <g clip-path="url(#clip32)"><text fill="#595959" font-family="Calibri,Calibri_MSFontService,sans-serif"
                font-weight="400" font-size="41" transform="matrix(1 0 0 1 5990.22 2273)">Ph in Transportation</text>
        </g>
        <rect x="5045.5" y="1350.5" width="1667" height="971" stroke="#D9D9D9" stroke-width="3.4375"
            stroke-linejoin="round" stroke-miterlimit="10" fill="none" />
    </g>
</svg>